<?xml version="1.0" encoding="utf-8"?>
<!-- Generator: Adobe Illustrator 26.1.0, SVG Export Plug-In . SVG Version: 6.00 Build 0)  -->
<svg version="1.1" xmlns="http://www.w3.org/2000/svg" xmlns:xlink="http://www.w3.org/1999/xlink" x="0px" y="0px"
	 viewBox="0 0 841.89 595.28" style="enable-background:new 0 0 841.89 595.28;" xml:space="preserve">
<style type="text/css">
	.st0{fill:none;stroke:#000000;stroke-width:5;stroke-linecap:round;stroke-linejoin:round;stroke-miterlimit:10;}
</style>
<g id="Layer_2">
	<path class="st0" d="M661.85,259.94c3.5-0.94,16.08-4.73,19.59-14.65c0.55-1.54,1.28-3.6,0.51-4.21
		c-2.32-1.85-17.74,10.21-23.83,26.87c-1.15,3.14-3.19,8.72-1.04,10.59c3.07,2.67,12.88-3.86,16.19-6.06
		c6.04-4.02,10.33-8.41,13.15-11.74"/>
</g>
<g id="Layer_3">
	<path class="st0" d="M651.57,247.85c0.27-3.4-0.4-4.58-1.15-4.98c-3.23-1.73-12.55,8.7-18.28,17.83
		c-4.54,7.23-10.25,19.08-7.63,21.11c2.32,1.8,10.21-4.82,12.38-6.64c6.34-5.31,10.17-11.12,12.38-15.13
		c-10.44,15.57-20.92,31.79-31.36,48.66c-14.93,24.11-28.65,47.71-41.28,70.64c3.26-7.06,29.81-65.63,12.85-78.81
		c-15.53-12.07-61.01,18.99-59.4,22.81c1.13,2.69,25.84-7.62,113.24-29.91c0,0,86.74-22.12,121.74-2.94
		c2.87,1.57,9.5,5.33,11.18,12.15c3.1,12.59-13.16,25.54-15.26,27.17"/>
</g>
<g id="Layer_4">
	<path class="st0" d="M615.32,246.96c-0.48-1.16-1.14-2.02-2.04-2.3c-7.48-2.31-30.03,35.07-25.4,39.19
		c6.18,5.5,54.99-53.6,59.23-70.85c0.14-0.57,0.44-1.77,0.13-1.91c-1.82-0.86-21.39,36.65-39.06,71.36"/>
</g>
<g id="Layer_5">
	<path class="st0" d="M570.69,268.48c3.39-2.24,8.1-5.97,12.08-11.82c2.74-4.02,5.17-9.11,4.49-9.57c-0.89-0.61-6.9,6.76-7.42,7.4
		c-9.34,11.44-18.23,28.39-15.45,30.64c1.93,1.56,10.08-3.42,34.66-27.82"/>
</g>
<g id="Layer_6">
	<path class="st0" d="M595.45,147.17c-7.13,12.29-14.32,25.6-21.36,39.91c-6.63,13.46-12.46,26.47-17.62,38.89
		c16.68-45.24,15.95-59.96,10.47-63.4c-22.72-14.26-130.08,163.06-128.43,194.81c0.05,0.94,0.24,2.31,1.24,3.25
		c9.48,8.98,67.14-43.04,98.59-71.42c4.47-4.03,21.12-19.2,18.38-23.74c-0.3-0.5-0.88-0.94-1.49-1.14
		c-3.8-1.29-9.52,6.05-12.64,10.25c-26.74,35.92-36.28,58.47-36.28,58.47c-4.6,10.87-10.12,25.55-14.96,43.49"/>
</g>
<g id="Layer_7">
	<path class="st0" d="M383.7,229.89c-0.17,0.51-37.96,70.13-37.96,70.13c20-20.61,35.81-35.68,37.82-33.98
		c2.54,2.14-20.16,27.97-16.38,31.77c4.16,4.18,35.84-22.85,37.11-35.06c0.07-0.68,0.16-1.56-0.17-1.7
		c-2.22-0.95-21.17,32.13-17.02,35.4c3.02,2.38,17.58-11.54,19.74-13.62c9.12-8.72,15.07-17.39,18.72-23.49
		c-16.74,29.77-18.34,37.48-16.51,38.81c2.72,1.98,14.43-9.14,20.36-15.74c7.61-8.46,12.27-16.76,15.04-22.56
		c-12.87,27.52-13.05,33.9-11.23,35.06c4.84,3.12,33.97-24.49,28.11-36.51c-1.4-2.86-4.48-4.22-6.32-4.86"/>
</g>
<g id="Layer_8">
	<path class="st0" d="M320.94,259.09c5.72-1.68,12.77-3.27,20.94-4.09c7.45-0.74,14.1-0.66,19.66-0.26"/>
	<path class="st0" d="M369.06,227.34c-0.34,0.85-46.13,77.62-46.13,77.62"/>
	<line class="st0" x1="351.87" y1="229.89" x2="307.28" y2="302.57"/>
</g>
<g id="Layer_9">
	<path class="st0" d="M297.83,271.09c-0.12-1.48-0.51-3.14-1.66-3.7c-4.3-2.1-15.46,12.97-17.12,15.2
		c-6.26,8.44-15.02,22.92-12.49,25.01c2.31,1.91,13.24-7.2,19.4-13.53c4.21-4.33,7.22-8.41,9.19-11.36
		c-5.55,11.06-7.47,17.23-5.74,18.51c2.98,2.21,16.82-10.18,41.52-37.18"/>
</g>
<g id="Layer_10">
	<path class="st0" d="M65.57,259.09c24.76-16.57,53.32-33.78,85.7-50.3c36.68-18.71,71.3-32.97,102.36-43.93"/>
</g>
<g id="Layer_11">
	<path class="st0" d="M80.21,399.43c20.93-32.61,43.69-66.18,68.43-100.43c35.25-48.79,70.54-93.45,105-134.14
		c-45.07,70.88-88.04,144.68-76.41,153.89c1.14,0.9,2.61,1.03,4.31,0.84c31.2-3.45,120.98-110.83,132.55-124.76
		c-11.76,16.69-47.47,68.54-58.64,104.85c-3.19,10.39-4.79,20.85,0.64,27.58c4.44,5.5,12.27,6.91,21.06,6.88
		c34.06-0.09,86.08-21.58,102.64-28.68"/>
</g>
</svg>
